<svg xmlns="http://www.w3.org/2000/svg" width="1440" height="853" viewBox="0 0 1440 853" fill="none">
<g clip-path="url(#clip0_3_34)">
<path d="M252 181H-288V520.375H252V181Z" stroke="#B3C7FD" stroke-opacity="0.12" stroke-width="2"/>
<path d="M216 203.625H-252V497.75H216V203.625Z" stroke="#B3C7FD" stroke-opacity="0.12" stroke-width="2"/>
<path d="M180 226.25H-216V475.125H180V226.25Z" stroke="#B3C7FD" stroke-opacity="0.12" stroke-width="2"/>
<path d="M144 248.875H-180V452.5H144V248.875Z" stroke="#B3C7FD" stroke-opacity="0.12" stroke-width="2"/>
<path d="M108 271.5H-144V429.875H108V271.5Z" stroke="#B3C7FD" stroke-opacity="0.12" stroke-width="2"/>
<path d="M72 294.125H-108V407.25H72V294.125Z" stroke="#B3C7FD" stroke-opacity="0.12" stroke-width="2"/>
<path d="M36 316.75H-72V384.625H36V316.75Z" stroke="#B3C7FD" stroke-opacity="0.12" stroke-width="2"/>
<path d="M0 339.375H-36V362H0V339.375Z" stroke="#B3C7FD" stroke-opacity="0.12" stroke-width="2"/>
<path d="M252 -1.52588e-05H0V158.375H252V-1.52588e-05Z" stroke="#B3C7FD" stroke-opacity="0.12" stroke-width="2"/>
<path d="M216 22.625H36V135.75H216V22.625Z" stroke="#B3C7FD" stroke-opacity="0.12" stroke-width="2"/>
<path d="M180 45.25H72V113.125H180V45.25Z" stroke="#B3C7FD" stroke-opacity="0.12" stroke-width="2"/>
<path d="M144 67.875H108V90.5H144V67.875Z" stroke="#B3C7FD" stroke-opacity="0.12" stroke-width="2"/>
<path d="M828 0H288V339.375H828V0Z" stroke="#B3C7FD" stroke-opacity="0.12" stroke-width="2"/>
<path d="M792 22.625H324V316.75H792V22.625Z" stroke="#B3C7FD" stroke-opacity="0.12" stroke-width="2"/>
<path d="M756 45.25H360V294.125H756V45.25Z" stroke="#B3C7FD" stroke-opacity="0.12" stroke-width="2"/>
<path d="M720 67.875H396V271.5H720V67.875Z" stroke="#B3C7FD" stroke-opacity="0.12" stroke-width="2"/>
<path d="M684 90.5H432V248.875H684V90.5Z" stroke="#B3C7FD" stroke-opacity="0.12" stroke-width="2"/>
<path d="M648 113.125H468V226.25H648V113.125Z" stroke="#B3C7FD" stroke-opacity="0.12" stroke-width="2"/>
<path d="M612 135.75H504V203.625H612V135.75Z" stroke="#B3C7FD" stroke-opacity="0.12" stroke-width="2"/>
<path d="M576 158.375H540V181H576V158.375Z" stroke="#B3C7FD" stroke-opacity="0.12" stroke-width="2"/>
<path d="M540 362H288V520.375H540V362Z" stroke="#B3C7FD" stroke-opacity="0.12" stroke-width="2"/>
<path d="M504 384.625H324V497.75H504V384.625Z" stroke="#B3C7FD" stroke-opacity="0.12" stroke-width="2"/>
<path d="M468 407.25H360V475.125H468V407.25Z" stroke="#B3C7FD" stroke-opacity="0.12" stroke-width="2"/>
<path d="M432 429.875H396V452.5H432V429.875Z" stroke="#B3C7FD" stroke-opacity="0.12" stroke-width="2"/>
<path d="M1404 -181H864V158.375H1404V-181Z" stroke="#B3C7FD" stroke-opacity="0.12" stroke-width="2"/>
<path d="M1368 -158.375H900V135.75H1368V-158.375Z" stroke="#B3C7FD" stroke-opacity="0.12" stroke-width="2"/>
<path d="M1332 -135.75H936V113.125H1332V-135.75Z" stroke="#B3C7FD" stroke-opacity="0.12" stroke-width="2"/>
<path d="M1296 -113.125H972V90.5H1296V-113.125Z" stroke="#B3C7FD" stroke-opacity="0.12" stroke-width="2"/>
<path d="M1260 -90.5H1008V67.875H1260V-90.5Z" stroke="#B3C7FD" stroke-opacity="0.12" stroke-width="2"/>
<path d="M1224 -67.875H1044V45.25H1224V-67.875Z" stroke="#B3C7FD" stroke-opacity="0.12" stroke-width="2"/>
<path d="M1188 -45.25H1080V22.625H1188V-45.25Z" stroke="#B3C7FD" stroke-opacity="0.12" stroke-width="2"/>
<path d="M1152 -22.625H1116V0H1152V-22.625Z" stroke="#B3C7FD" stroke-opacity="0.12" stroke-width="2"/>
<path d="M1116 181H864V339.375H1116V181Z" stroke="#B3C7FD" stroke-opacity="0.12" stroke-width="2"/>
<path d="M1080 203.625H900V316.75H1080V203.625Z" stroke="#B3C7FD" stroke-opacity="0.12" stroke-width="2"/>
<path d="M1044 226.25H936V294.125H1044V226.25Z" stroke="#B3C7FD" stroke-opacity="0.12" stroke-width="2"/>
<path d="M1008 248.875H972V271.5H1008V248.875Z" stroke="#B3C7FD" stroke-opacity="0.12" stroke-width="2"/>
<path d="M540 543H0V882.375H540V543Z" stroke="#B3C7FD" stroke-opacity="0.12" stroke-width="2"/>
<path d="M504 565.625H36V859.75H504V565.625Z" stroke="#B3C7FD" stroke-opacity="0.12" stroke-width="2"/>
<path d="M468 588.25H72V837.125H468V588.25Z" stroke="#B3C7FD" stroke-opacity="0.12" stroke-width="2"/>
<path d="M432 610.875H108V814.5H432V610.875Z" stroke="#B3C7FD" stroke-opacity="0.12" stroke-width="2"/>
<path d="M396 633.5H144V791.875H396V633.5Z" stroke="#B3C7FD" stroke-opacity="0.12" stroke-width="2"/>
<path d="M360 656.125H180V769.25H360V656.125Z" stroke="#B3C7FD" stroke-opacity="0.12" stroke-width="2"/>
<path d="M324 678.75H216V746.625H324V678.75Z" stroke="#B3C7FD" stroke-opacity="0.12" stroke-width="2"/>
<path d="M288 701.375H252V724H288V701.375Z" stroke="#B3C7FD" stroke-opacity="0.12" stroke-width="2"/>
<path d="M1980 543H1440V882.375H1980V543Z" stroke="#B3C7FD" stroke-opacity="0.12" stroke-width="2"/>
<path d="M1116 362H576V701.375H1116V362Z" stroke="#B3C7FD" stroke-opacity="0.12" stroke-width="2"/>
<path d="M1080 384.625H612V678.75H1080V384.625Z" stroke="#B3C7FD" stroke-opacity="0.12" stroke-width="2"/>
<path d="M1044 407.25H648V656.125H1044V407.25Z" stroke="#B3C7FD" stroke-opacity="0.12" stroke-width="2"/>
<path d="M1008 429.875H684V633.5H1008V429.875Z" stroke="#B3C7FD" stroke-opacity="0.12" stroke-width="2"/>
<path d="M972 452.5H720V610.875H972V452.5Z" stroke="#B3C7FD" stroke-opacity="0.12" stroke-width="2"/>
<path d="M936 475.125H756V588.25H936V475.125Z" stroke="#B3C7FD" stroke-opacity="0.12" stroke-width="2"/>
<path d="M900 497.75H792V565.625H900V497.75Z" stroke="#B3C7FD" stroke-opacity="0.12" stroke-width="2"/>
<path d="M864 520.375H828V543H864V520.375Z" stroke="#B3C7FD" stroke-opacity="0.12" stroke-width="2"/>
<path d="M828 724H576V882.375H828V724Z" stroke="#B3C7FD" stroke-opacity="0.12" stroke-width="2"/>
<path d="M792 746.625H612V859.75H792V746.625Z" stroke="#B3C7FD" stroke-opacity="0.12" stroke-width="2"/>
<path d="M756 769.25H648V837.125H756V769.25Z" stroke="#B3C7FD" stroke-opacity="0.12" stroke-width="2"/>
<path d="M720 791.875H684V814.5H720V791.875Z" stroke="#B3C7FD" stroke-opacity="0.12" stroke-width="2"/>
<path d="M1404 724H864V1063.37H1404V724Z" stroke="#B3C7FD" stroke-opacity="0.12" stroke-width="2"/>
<path d="M1368 746.625H900V1040.75H1368V746.625Z" stroke="#B3C7FD" stroke-opacity="0.12" stroke-width="2"/>
<path d="M1332 769.25H936V1018.12H1332V769.25Z" stroke="#B3C7FD" stroke-opacity="0.12" stroke-width="2"/>
<path d="M1296 791.875H972V995.5H1296V791.875Z" stroke="#B3C7FD" stroke-opacity="0.12" stroke-width="2"/>
<path d="M1260 814.5H1008V972.875H1260V814.5Z" stroke="#B3C7FD" stroke-opacity="0.12" stroke-width="2"/>
<path d="M1224 837.125H1044V950.25H1224V837.125Z" stroke="#B3C7FD" stroke-opacity="0.12" stroke-width="2"/>
<path d="M1692 181H1152V520.375H1692V181Z" stroke="#B3C7FD" stroke-opacity="0.12" stroke-width="2"/>
<path d="M1656 203.625H1188V497.75H1656V203.625Z" stroke="#B3C7FD" stroke-opacity="0.12" stroke-width="2"/>
<path d="M1620 226.25H1224V475.125H1620V226.25Z" stroke="#B3C7FD" stroke-opacity="0.12" stroke-width="2"/>
<path d="M1584 248.875H1260V452.5H1584V248.875Z" stroke="#B3C7FD" stroke-opacity="0.12" stroke-width="2"/>
<path d="M1548 271.5H1296V429.875H1548V271.5Z" stroke="#B3C7FD" stroke-opacity="0.12" stroke-width="2"/>
<path d="M1512 294.125H1332V407.25H1512V294.125Z" stroke="#B3C7FD" stroke-opacity="0.12" stroke-width="2"/>
<path d="M1476 316.75H1368V384.625H1476V316.75Z" stroke="#B3C7FD" stroke-opacity="0.12" stroke-width="2"/>
<path d="M1440 339.375H1404V362H1440V339.375Z" stroke="#B3C7FD" stroke-opacity="0.12" stroke-width="2"/>
<path d="M1404 543H1152V701.375H1404V543Z" stroke="#B3C7FD" stroke-opacity="0.12" stroke-width="2"/>
<path d="M1368 565.625H1188V678.75H1368V565.625Z" stroke="#B3C7FD" stroke-opacity="0.12" stroke-width="2"/>
<path d="M1332 588.25H1224V656.125H1332V588.25Z" stroke="#B3C7FD" stroke-opacity="0.12" stroke-width="2"/>
<path d="M1296 610.875H1260V633.5H1296V610.875Z" stroke="#B3C7FD" stroke-opacity="0.12" stroke-width="2"/>
<path d="M1692 0H1440V158.375H1692V0Z" stroke="#B3C7FD" stroke-opacity="0.12" stroke-width="2"/>
</g>
<defs>
<clipPath id="clip0_3_34">
<rect width="1440" height="905" fill="white"/>
</clipPath>
</defs>
</svg>